# File created by Blade
# Date/Time:  Tue Jan 27 19:23:16 2015
# Frame Rate: 120.000 fps
#------------------------------------------------------
:FULLY-SPECIFIED
:DEGREES
1779
root 3.786350 32.299225 0.372864 -4.329679 0.250246 0.261269
Spine -0.411837 9.360100 -0.707268
Head 7.575596 -30.790894 -2.095580
LeftShoulder -3.336311 -7.314092 24.729392
LeftArm -3.240646 42.054649 -102.042034
LeftForeArm 1.993102 -0.000000 14.869272
LeftHand 9.962158 -0.000000 -5.527047
LeftHandThumb1 -26.253704 0.000000 33.147579
RightShoulder -8.595610 6.928076 -38.814186
RightArm 61.939119 63.203459 99.101257
RightForeArm 24.682623 -0.000000 97.930648
RightHand 29.783983 -0.000000 -14.270796
RightHandThumb1 -24.326973 -0.000000 -32.862282
LeftUpLeg 10.881269 1.161099 -0.002781
LeftLeg 2.386996 -0.000000 -0.000000
LeftFoot -18.918934 13.910608 -23.746381
LeftToeBase 16.581616 -0.000000 -0.000000
RightUpLeg 9.850601 -8.783229 1.325339
RightLeg 0.380879 -0.000000 -0.000000
RightFoot -12.382687 -13.337277 13.664485
RightToeBase 10.354301 -0.000000 -0.000000
1780
root 3.787355 32.299936 0.372322 -4.312995 0.368454 0.276279
Spine -0.412770 9.289374 -0.715989
Head 7.482645 -30.873286 -2.060049
LeftShoulder -3.339525 -7.309444 24.709145
LeftArm -3.248673 42.147992 -102.054902
LeftForeArm 2.082683 -0.000000 14.859429
LeftHand 10.041564 -0.000000 -5.236454
LeftHandThumb1 -26.253704 0.000000 33.147579
RightShoulder -8.603263 6.880070 -38.832641
RightArm 62.236034 63.179775 99.390507
RightForeArm 24.610898 -0.000000 97.913838
RightHand 29.860374 -0.000000 -14.104753
RightHandThumb1 -24.326973 -0.000000 -32.862282
LeftUpLeg 10.865227 1.129554 -0.012210
LeftLeg 2.337440 -0.000000 -0.000000
LeftFoot -18.903738 13.862013 -23.813101
LeftToeBase 16.717423 -0.000000 -0.000000
RightUpLeg 9.855104 -8.844865 1.308732
RightLeg 0.365715 -0.000000 -0.000000
RightFoot -12.403268 -13.374815 13.680648
RightToeBase 10.388174 -0.000000 -0.000000
1781
root 3.786932 32.300661 0.371394 -4.298556 0.474417 0.277164
Spine -0.407383 9.252226 -0.717776
Head 7.389239 -30.953386 -2.006144
LeftShoulder -3.330968 -7.335390 24.711213
LeftArm -3.284041 42.232037 -102.108077
LeftForeArm 2.021038 0.000000 14.835945
LeftHand 10.080156 0.000000 -5.523408
LeftHandThumb1 -26.253704 0.000000 33.147579
RightShoulder -8.638896 6.825469 -38.839086
RightArm 62.420284 63.157724 99.556736
RightForeArm 24.586562 -0.000000 97.903085
RightHand 29.840199 0.000000 -14.017526
RightHandThumb1 -24.326973 -0.000000 -32.862282
LeftUpLeg 10.845873 1.120351 -0.001668
LeftLeg 2.311365 -0.000000 -0.000000
LeftFoot -18.852032 13.791296 -23.800945
LeftToeBase 16.745174 -0.000000 -0.000000
RightUpLeg 9.845069 -8.872454 1.307791
RightLeg 0.380347 -0.000000 -0.000000
RightFoot -12.425601 -13.398642 13.730738
RightToeBase 10.343431 -0.000000 -0.000000
1782
root 3.787934 32.301388 0.370211 -4.277589 0.568273 0.287627
Spine -0.410174 9.223545 -0.722367
Head 7.327370 -30.986261 -1.997913
LeftShoulder -3.327617 -7.334410 24.703474
LeftArm -3.294322 42.320939 -102.150820
LeftForeArm 1.954832 -0.000000 14.797363
LeftHand 10.133203 0.000000 -5.688538
LeftHandThumb1 -26.253704 0.000000 33.147579
RightShoulder -8.643544 6.829606 -38.837544
RightArm 62.411606 63.185721 99.507196
RightForeArm 24.586094 -0.000000 97.901979
RightHand 29.832211 0.000000 -14.005658
RightHandThumb1 -24.326973 -0.000000 -32.862282
LeftUpLeg 10.812090 1.085737 -0.008936
LeftLeg 2.301972 -0.000000 -0.000000
LeftFoot -18.803681 13.780154 -23.730183
LeftToeBase 16.796488 -0.000000 -0.000000
RightUpLeg 9.831491 -8.897899 1.299724
RightLeg 0.385389 -0.000000 -0.000000
RightFoot -12.451163 -13.443138 13.774273
RightToeBase 10.373851 -0.000000 -0.000000
1783
root 3.787721 32.301823 0.369316 -4.259633 0.649156 0.293246
Spine -0.411785 9.209428 -0.720433
Head 7.255020 -31.050156 -1.972077
LeftShoulder -3.303100 -7.456182 24.697521
LeftArm -3.480645 42.308375 -102.300453
LeftForeArm 2.186780 0.000000 14.763206
LeftHand 9.983989 -0.000000 -4.792053
LeftHandThumb1 -26.253704 0.000000 33.147579
RightShoulder -8.651643 6.824543 -38.846804
RightArm 62.453491 63.197979 99.521341
RightForeArm 24.588042 -0.000000 97.885586
RightHand 29.840998 0.000000 -14.057352
RightHandThumb1 -24.326973 -0.000000 -32.862282
LeftUpLeg 10.791310 1.070043 -0.007328
LeftLeg 2.290646 -0.000000 -0.000000
LeftFoot -18.712191 13.725057 -23.604460
LeftToeBase 16.601976 -0.000000 -0.000000
RightUpLeg 9.816201 -8.915500 1.299619
RightLeg 0.395881 -0.000000 -0.000000
RightFoot -12.471565 -13.483799 13.797286
RightToeBase 10.356305 -0.000000 -0.000000
1784
root 3.788377 32.301730 0.368304 -4.248108 0.721719 0.308935
Spine -0.408160 9.188495 -0.726342
Head 7.200769 -31.093220 -1.955166
LeftShoulder -3.296183 -7.531018 24.686176
LeftArm -3.604265 42.271354 -102.405332
LeftForeArm 2.336981 -0.000000 14.716466
LeftHand 9.946379 0.000000 -4.709486
LeftHandThumb1 -26.253704 0.000000 33.147579
RightShoulder -8.633506 6.827226 -38.850509
RightArm 62.515372 63.216397 99.549714
RightForeArm 24.597422 -0.000000 97.874367
RightHand 29.840654 -0.000000 -14.246626
RightHandThumb1 -24.326973 -0.000000 -32.862282
LeftUpLeg 10.778827 1.066708 -0.014771
LeftLeg 2.255636 -0.000000 -0.000000
LeftFoot -18.716936 13.676552 -23.685431
LeftToeBase 16.808080 -0.000000 -0.000000
RightUpLeg 9.815744 -8.967928 1.287153
RightLeg 0.388312 -0.000000 -0.000000
RightFoot -12.492397 -13.528245 13.769018
RightToeBase 10.370250 -0.000000 -0.000000
1785
root 3.790155 32.302261 0.370179 -4.250454 0.777338 0.323057
Spine -0.402739 9.188696 -0.722073
Head 7.168787 -31.166505 -1.945947
LeftShoulder -3.282431 -7.515921 24.667382
LeftArm -3.619029 42.264548 -102.448000
LeftForeArm 2.332406 -0.000000 14.640504
LeftHand 9.977336 0.000000 -4.713493
LeftHandThumb1 -26.253704 0.000000 33.147579
RightShoulder -8.630880 6.805792 -38.869411
RightArm 62.549128 63.209010 99.574666
RightForeArm 24.624566 -0.000000 97.866618
RightHand 29.817105 -0.000000 -14.380182
RightHandThumb1 -24.326973 -0.000000 -32.862282
LeftUpLeg 10.780691 1.110876 -0.013952
LeftLeg 2.243399 -0.000000 -0.000000
LeftFoot -18.664818 13.592508 -23.667307
LeftToeBase 16.828615 -0.000000 -0.000000
RightUpLeg 9.821805 -8.989290 1.267371
RightLeg 0.405339 -0.000000 -0.000000
RightFoot -12.518269 -13.544309 13.763978
RightToeBase 10.395087 -0.000000 -0.000000
